<?xml version="1.0"?><svg xmlns="http://www.w3.org/2000/svg"  viewBox="0 0 50 50" width="50px" height="50px">    <path d="M 12 3 C 7.04 3 3 7.04 3 12 L 3 38 C 3 42.96 7.04 47 12 47 L 38 47 C 42.96 47 47 42.96 47 38 L 47 12 C 47 7.04 42.96 3 38 3 L 12 3 z M 15.720703 10 L 24 10 C 27.66 10 30.239453 10.859453 29.939453 14.939453 C 29.669453 18.699453 27.240234 19.390625 27.240234 19.390625 C 27.240234 19.390625 28.03 20.840078 27.75 23.580078 C 27.46 26.470078 27.780781 27.54 28.050781 28 L 23.130859 28 C 23.130859 28 22.850234 27.409766 22.990234 26.259766 C 23.420234 22.839766 22.929063 21 20.539062 21 L 17.669922 21 L 16.130859 28 L 11.859375 28 L 15.720703 10 z M 19.289062 13.029297 L 18.310547 17.970703 L 22.779297 17.970703 C 24.129297 17.970703 25.569922 17.519297 25.919922 15.779297 C 26.279922 14.009297 25.030938 13.029297 23.710938 13.029297 L 19.289062 13.029297 z M 32.330078 24 L 33.279297 29.970703 L 39 29.970703 L 33.800781 33.820312 L 35 40 L 30.169922 36.25 L 24 40 L 26.900391 33.609375 L 23 30 L 29 30 L 32.330078 24 z"/></svg>