<svg xmlns="http://www.w3.org/2000/svg"  viewBox="0 0 80 80" width="80px" height="80px"><path d="M 17 10 C 15.67447 10 14.4022 10.526238 13.464844 11.464844 C 12.526238 12.4022 12 13.67447 12 15 L 12 57.292969 C 12 59.334837 13.248279 61.174876 15.142578 61.933594 C 20.743772 64.174671 34.108376 69.521275 38.615234 71.324219 C 39.827613 71.80917 41.182427 71.800075 42.388672 71.298828 C 46.764356 69.481959 59.512858 64.190331 64.916016 61.947266 C 66.780673 61.173444 68 59.346279 68 57.328125 L 68 15 C 68 13.67447 67.473762 12.4022 66.535156 11.464844 C 65.5978 10.526238 64.32553 10 63 10 L 17 10 z M 17 12 L 63 12 C 63.79647 12 64.55845 12.315512 65.121094 12.878906 C 65.684488 13.44155 66 14.20353 66 15 L 66 57.328125 C 66 58.543971 65.273733 59.63343 64.150391 60.099609 C 58.747548 62.342544 45.99741 67.634041 41.621094 69.451172 C 40.897339 69.751924 40.085043 69.75784 39.357422 69.466797 C 34.850604 67.663865 21.488237 62.319332 15.886719 60.078125 L 15.884766 60.078125 C 14.743949 59.620487 14 58.522569 14 57.292969 L 14 15 C 14 14.20353 14.315512 13.44155 14.878906 12.878906 C 15.44155 12.315512 16.20353 12 17 12 z M 17 14 A 1 1 0 0 0 17 16 A 1 1 0 0 0 17 14 z M 63 14 A 1 1 0 0 0 63 16 A 1 1 0 0 0 63 14 z M 21 17 L 21 41 L 29 41 L 29 38 L 25 38 L 25 31 L 29 31 L 29 28 L 25 28 L 25 20 L 29 20 L 29 17 L 21 17 z M 31 17 L 31 41 L 35 41 L 35 30.998047 L 37 30.998047 C 40.066 31.037047 41.5 30.012047 41.5 26.998047 L 41.5 22 C 41.5 18.987 40.934188 17 37.867188 17 L 31 17 z M 43 17 L 43 41 L 47 41 L 47 17 L 43 17 z M 53.578125 17 C 50.515125 17 49 18.449813 49 21.382812 L 49 36.617188 C 49 39.551187 50.515125 41 53.578125 41 L 55.445312 41 C 58.510312 41 60 39.559 60 36.625 L 60 31 L 56.5 30.960938 L 56.5 36 C 56.5 37.351 55.732203 37.969 54.783203 38 C 54.352203 38.014 53 38 53 36 L 53 22 C 53 20.5 53.916203 20 54.783203 20 C 55.734203 20 56.522 20.735 56.5 22 L 56.521484 26 L 60 26 L 60 21.5 C 59.986 18.567 58.474156 17 55.410156 17 L 53.578125 17 z M 17 18 A 1 1 0 0 0 17 20 A 1 1 0 0 0 17 18 z M 63 18 A 1 1 0 0 0 63 20 A 1 1 0 0 0 63 18 z M 35 20 L 36.5 20 C 37.452 19.999 37.996 20.53 38 21.5 L 38 26.498047 C 38.004 27.467047 37.5 27.994047 36.5 27.998047 L 35 27.998047 L 35 20 z M 17 22 A 1 1 0 0 0 17 24 A 1 1 0 0 0 17 22 z M 63 22 A 1 1 0 0 0 63 24 A 1 1 0 0 0 63 22 z M 17 26 A 1 1 0 0 0 17 28 A 1 1 0 0 0 17 26 z M 63 26 A 1 1 0 0 0 63 28 A 1 1 0 0 0 63 26 z M 17 30 A 1 1 0 0 0 17 32 A 1 1 0 0 0 17 30 z M 63 30 A 1 1 0 0 0 63 32 A 1 1 0 0 0 63 30 z M 17 34 A 1 1 0 0 0 17 36 A 1 1 0 0 0 17 34 z M 63 34 A 1 1 0 0 0 63 36 A 1 1 0 0 0 63 34 z M 17 38 A 1 1 0 0 0 17 40 A 1 1 0 0 0 17 38 z M 63 38 A 1 1 0 0 0 63 40 A 1 1 0 0 0 63 38 z M 17 42 A 1 1 0 0 0 17 44 A 1 1 0 0 0 17 42 z M 63 42 A 1 1 0 0 0 63 44 A 1 1 0 0 0 63 42 z M 17 46 A 1 1 0 0 0 17 48 A 1 1 0 0 0 17 46 z M 63 46 A 1 1 0 0 0 63 48 A 1 1 0 0 0 63 46 z M 56.9375 46.744141 C 56.594547 46.747484 56.253625 46.788187 55.921875 46.867188 C 55.284875 47.033187 54.680859 47.43325 54.380859 48.03125 C 53.912859 48.93825 54.105406 50.231516 55.066406 50.728516 C 55.741406 51.141516 56.546969 51.241891 57.292969 51.462891 C 57.551969 51.541891 57.865344 51.630281 58.027344 51.863281 C 58.168344 52.137281 58.007984 52.495312 57.708984 52.570312 C 56.712984 52.818313 55.674531 52.374578 54.894531 51.767578 C 54.538531 52.203578 54.165594 52.636266 53.808594 53.072266 C 55.404594 54.619266 59.684 55.025438 60 52.148438 C 60.187 50.186437 58.278359 49.895 56.818359 49.5 C 55.842359 49.348 55.796844 48.371094 56.839844 48.371094 C 57.562844 48.379094 58.257844 48.68175 58.839844 49.09375 C 59.161844 48.63575 59.481687 48.170891 59.804688 47.712891 C 59.005188 47.063391 57.966359 46.734109 56.9375 46.744141 z M 31.980469 46.998047 C 30.949469 49.426047 29.914859 51.855203 28.880859 54.283203 L 30.894531 54.283203 C 31.079531 53.831203 31.262313 53.371922 31.445312 52.919922 L 34.308594 52.919922 C 34.493594 53.371922 34.676375 53.831203 34.859375 54.283203 L 36.927734 54.283203 C 35.893734 51.856203 34.862172 49.425047 33.826172 46.998047 L 31.980469 46.998047 z M 37.699219 46.998047 L 37.699219 54.214844 L 39.587891 54.214844 L 39.587891 49.962891 C 40.216891 50.920891 40.834938 51.890516 41.460938 52.853516 L 41.5 52.853516 C 42.13 51.881516 42.766531 50.912453 43.394531 49.939453 L 43.394531 54.210938 C 43.999531 54.213938 44.607891 54.204844 45.212891 54.214844 L 45.310547 54.214844 L 45.310547 46.998047 L 43.273438 46.998047 C 42.684438 47.950047 42.088047 48.905422 41.498047 49.857422 C 40.914047 48.904422 40.320328 47.952047 39.736328 46.998047 L 37.699219 46.998047 z M 47 47.003906 L 47 54.220703 L 52.699219 54.220703 L 52.699219 54.210938 L 52.794922 54.210938 L 52.794922 52.570312 L 48.898438 52.570312 L 48.898438 51.359375 L 52.355469 51.359375 L 52.355469 49.820312 L 48.898438 49.820312 L 48.898438 48.640625 L 52.744141 48.640625 L 52.744141 47.003906 L 47 47.003906 z M 25.291016 47.005859 C 23.182249 46.913192 21.088578 48.251328 21.001953 50.681641 C 20.926953 54.506641 25.525875 55.613422 28.171875 53.482422 L 28.240234 53.414062 L 28.240234 50.191406 L 24.867188 50.191406 L 24.867188 51.640625 L 26.359375 51.640625 L 26.359375 52.556641 C 24.866375 53.447641 22.921203 52.510688 23.033203 50.679688 C 23.188203 48.636687 25.419547 48.196312 26.810547 49.445312 C 27.201547 48.982312 27.597281 48.513781 27.988281 48.050781 C 27.210781 47.384844 26.249546 47.047981 25.291016 47.005859 z M 32.802734 49.212891 C 33.068734 49.884891 33.342609 50.558375 33.599609 51.234375 L 33.634766 51.324219 L 31.955078 51.324219 C 32.233078 50.620219 32.522734 49.916891 32.802734 49.212891 z M 17 50 A 1 1 0 0 0 17 52 A 1 1 0 0 0 17 50 z M 63 50 A 1 1 0 0 0 63 52 A 1 1 0 0 0 63 50 z M 17 54 A 1 1 0 0 0 17 56 A 1 1 0 0 0 17 54 z M 63 54 A 1 1 0 0 0 63 56 A 1 1 0 0 0 63 54 z M 32.560547 61 C 32.277547 61 32.035281 61.204422 31.988281 61.482422 C 31.940281 61.761422 32.100187 62.032953 32.367188 62.126953 C 35.726187 63.309953 40.525391 65 40.525391 65 C 40.525391 65 45.245891 63.330438 48.587891 62.148438 C 48.858891 62.052438 49.021656 61.774234 48.972656 61.490234 C 48.924656 61.206234 48.678625 61 48.390625 61 L 32.560547 61 z"/></svg>